<svg width="22" height="22" viewBox="0 0 22 22" fill="none" xmlns="http://www.w3.org/2000/svg">
<path d="M11.0001 8.5V1ZM5.00012 10L11.0001 8.5L17.0001 7M13.0001 14L17.0001 7ZM21.0001 14L17.0001 7ZM9.00012 17L5.00012 10ZM1.00012 17L5.00012 10Z" fill="#07CF57"/>
<path d="M11.0001 8.5V1M11.0001 8.5L5.00012 10M11.0001 8.5L17.0001 7M5.00012 10L9.00012 17M5.00012 10L1.00012 17M17.0001 7L13.0001 14M17.0001 7L21.0001 14" stroke="#00A843" stroke-width="2" stroke-linecap="round" stroke-linejoin="round"/>
<path fill-rule="evenodd" clip-rule="evenodd" d="M5.00012 21C6.06099 21 7.0784 20.5786 7.82855 19.8284C8.57869 19.0783 9.00012 18.0609 9.00012 17H1.00012C1.00012 18.0609 1.42155 19.0783 2.17169 19.8284C2.92184 20.5786 3.93926 21 5.00012 21ZM17.0001 18C18.061 18 19.0784 17.5786 19.8285 16.8284C20.5787 16.0783 21.0001 15.0609 21.0001 14H13.0001C13.0001 15.0609 13.4215 16.0783 14.1717 16.8284C14.9218 17.5786 15.9393 18 17.0001 18Z" fill="#07CF57" stroke="#00A843" stroke-width="2" stroke-linecap="round" stroke-linejoin="round"/>
</svg>
