<svg width="25" height="25" viewBox="0 0 25 25" fill="none" xmlns="http://www.w3.org/2000/svg">
<path d="M15.625 9.375L13.021 11.979M15.625 9.375V6.25L18.75 3.125V6.25H21.875L18.75 9.375H15.625Z" stroke="#00A843" stroke-linecap="round" stroke-linejoin="round"/>
<path d="M12.844 3.125H12.5C10.6458 3.125 8.83324 3.67483 7.29153 4.70497C5.74982 5.73511 4.54821 7.19929 3.83863 8.91234C3.12906 10.6254 2.94341 12.5104 3.30514 14.329C3.66688 16.1475 4.55976 17.818 5.87088 19.1291C7.182 20.4402 8.85246 21.3331 10.671 21.6949C12.4896 22.0566 14.3746 21.8709 16.0877 21.1614C17.8007 20.4518 19.2649 19.2502 20.295 17.7085C21.3252 16.1668 21.875 14.3542 21.875 12.5V12.1565" stroke="#00A843" stroke-linecap="round" stroke-linejoin="round"/>
<path d="M17.604 13.5415C17.4157 14.4634 16.9812 15.3171 16.3466 16.0118C15.712 16.7065 14.9011 17.2164 14 17.4872C13.0989 17.758 12.1412 17.7797 11.2288 17.5499C10.3164 17.3201 9.48323 16.8474 8.81789 16.1821C8.15256 15.5168 7.67988 14.6836 7.45008 13.7712C7.22028 12.8587 7.24194 11.9011 7.51277 11C7.78359 10.0989 8.29345 9.28796 8.98819 8.65339C9.68293 8.01882 10.5366 7.5843 11.4585 7.396" stroke="#00A843" stroke-linecap="round" stroke-linejoin="round"/>
</svg>
