<svg width="24" height="24" viewBox="0 0 24 24" fill="none" xmlns="http://www.w3.org/2000/svg">
<path d="M11.997 21.385C11.5517 21.385 11.1717 21.2267 10.857 20.91C10.5423 20.594 10.385 20.214 10.385 19.77H13.615C13.615 20.2167 13.4567 20.5977 13.14 20.913C12.8227 21.2277 12.4417 21.385 11.997 21.385ZM5.5 18.769C5.358 18.769 5.23933 18.721 5.144 18.625C5.04867 18.529 5.00067 18.41 5 18.268C4.99933 18.126 5.04733 18.0073 5.144 17.912C5.24067 17.8167 5.35933 17.769 5.5 17.769H6.616V9.846C6.616 8.53933 7.02933 7.39033 7.856 6.399C8.68267 5.40767 9.73067 4.79 11 4.546V4C11 3.722 11.097 3.486 11.291 3.292C11.485 3.09733 11.7207 3 11.998 3C12.2753 3 12.5117 3.09733 12.707 3.292C12.9023 3.48667 13 3.72267 13 4V4.075C12.8553 4.301 12.7287 4.52867 12.62 4.758C12.5113 4.98733 12.4263 5.23133 12.365 5.49L12.187 5.47C12.129 5.46467 12.0667 5.462 12 5.462C10.7847 5.462 9.75 5.88867 8.896 6.742C8.042 7.59533 7.61533 8.63 7.616 9.846V17.769H16.385V11.691C16.5437 11.721 16.7073 11.7447 16.876 11.762C17.0447 11.7793 17.214 11.7817 17.384 11.769V17.769H18.5C18.642 17.769 18.7607 17.817 18.856 17.913C18.952 18.009 19 18.128 19 18.27C19 18.412 18.952 18.5307 18.856 18.626C18.76 18.7213 18.6413 18.769 18.5 18.769H5.5ZM15.192 8.675C14.7053 8.18967 14.462 7.6 14.462 6.906C14.462 6.212 14.7047 5.62133 15.19 5.134C15.6753 4.64667 16.2653 4.40333 16.96 4.404C17.6547 4.40467 18.2447 4.64733 18.73 5.132C19.2153 5.61667 19.4593 6.20667 19.462 6.902C19.4647 7.59733 19.2217 8.18767 18.733 8.673C18.2443 9.15833 17.6543 9.40167 16.963 9.403C16.2717 9.40433 15.6807 9.16167 15.192 8.675Z" fill="black"/>
</svg>
