<svg width="36" height="36" viewBox="0 0 36 36" fill="none" xmlns="http://www.w3.org/2000/svg">
<path fill-rule="evenodd" clip-rule="evenodd" d="M18 3.00003C19.9698 3.00002 21.9204 3.388 23.7403 4.14182C25.5602 4.89563 27.2137 6.00052 28.6066 7.3934C29.9995 8.78627 31.1044 10.4399 31.8582 12.2597C32.6121 14.0796 33 16.0302 33 18C33 26.2843 26.2843 33.0001 18 33.0001C9.71578 33.0001 3.00002 26.2843 3.00002 18C3.00002 9.71579 9.71578 3.00003 18 3.00003ZM19.5 19.5001H16.5C12.7865 19.5001 9.59829 21.7491 8.22319 24.9597C10.3989 28.0106 13.9672 30 18 30C22.0328 30 25.6011 28.0106 27.7769 24.9595C26.4018 21.7491 23.2136 19.5001 19.5 19.5001ZM18 7.50003C15.5147 7.50003 13.5 9.51477 13.5 12C13.5 14.4853 15.5147 16.5 18 16.5C20.4853 16.5 22.5 14.4853 22.5 12C22.5 9.51477 20.4853 7.50003 18 7.50003Z" fill="black"/>
</svg>
